<?xml version="1.0" encoding="utf-8"?>
<svg version="1.1" xmlns:xlink="http://www.w3.org/1999/xlink" width="110px" height="70px" xmlns="http://www.w3.org/2000/svg">
  <g transform="matrix(1 0 0 1 -535 -410 )">
    <path d="M 545.5 479.5  L 644.5 479.5  L 644.5 420.5  L 639.5 420.5  L 639.5 415.5  L 634.5 415.5  L 634.5 410.5  L 535.5 410.5  L 535.5 469.5  L 540.5 469.5  L 540.5 474.5  L 545.5 474.5  L 545.5 479.5  Z " fill-rule="nonzero" fill="#f59a23" stroke="none" />
    <path d="M 545.5 479.5  L 644.5 479.5  L 644.5 420.5  L 639.5 420.5  L 639.5 415.5  L 634.5 415.5  L 634.5 410.5  L 535.5 410.5  L 535.5 469.5  L 540.5 469.5  L 540.5 474.5  L 545.5 474.5  L 545.5 479.5  Z " stroke-width="1" stroke="#797979" fill="none" />
    <path d="M 639.5 421  L 639.5 474.5  L 546 474.5  M 634.5 416  L 634.5 469.5  L 541 469.5  " stroke-width="1" stroke="#797979" fill="none" />
  </g>
</svg>