<?xml version="1.0" encoding="utf-8"?>
<svg version="1.1" xmlns:xlink="http://www.w3.org/1999/xlink" width="70px" height="50px" xmlns="http://www.w3.org/2000/svg">
  <g transform="matrix(1 0 0 1 -863 -505 )">
    <path d="M 873.5 554.5  L 932.5 554.5  L 932.5 515.5  L 927.5 515.5  L 927.5 510.5  L 922.5 510.5  L 922.5 505.5  L 863.5 505.5  L 863.5 544.5  L 868.5 544.5  L 868.5 549.5  L 873.5 549.5  L 873.5 554.5  Z " fill-rule="nonzero" fill="#f59a23" stroke="none" />
    <path d="M 873.5 554.5  L 932.5 554.5  L 932.5 515.5  L 927.5 515.5  L 927.5 510.5  L 922.5 510.5  L 922.5 505.5  L 863.5 505.5  L 863.5 544.5  L 868.5 544.5  L 868.5 549.5  L 873.5 549.5  L 873.5 554.5  Z " stroke-width="1" stroke="#797979" fill="none" />
    <path d="M 927.5 516  L 927.5 549.5  L 874 549.5  M 922.5 511  L 922.5 544.5  L 869 544.5  " stroke-width="1" stroke="#797979" fill="none" />
  </g>
</svg>